<?xml version="1.0" encoding="UTF-8" standalone="no"?>
<!-- Generator: Adobe Illustrator 16.0.0, SVG Export Plug-In . SVG Version: 6.00 Build 0)  -->

<svg
   xmlns:osb="http://www.openswatchbook.org/uri/2009/osb"
   xmlns:dc="http://purl.org/dc/elements/1.1/"
   xmlns:cc="http://creativecommons.org/ns#"
   xmlns:rdf="http://www.w3.org/1999/02/22-rdf-syntax-ns#"
   xmlns:svg="http://www.w3.org/2000/svg"
   xmlns="http://www.w3.org/2000/svg"
   xmlns:xlink="http://www.w3.org/1999/xlink"
   xmlns:sodipodi="http://sodipodi.sourceforge.net/DTD/sodipodi-0.dtd"
   xmlns:inkscape="http://www.inkscape.org/namespaces/inkscape"
   version="1.1"
   id="Layer_1"
   x="0px"
   y="0px"
   width="50px"
   height="50px"
   viewBox="0 0 50 50"
   enable-background="new 0 0 50 50"
   xml:space="preserve"
   inkscape:version="0.48.4 r9939"
   sodipodi:docname="bug13.svg"><metadata
     id="metadata3835"><rdf:RDF><cc:Work
         rdf:about=""><dc:format>image/svg+xml</dc:format><dc:type
           rdf:resource="http://purl.org/dc/dcmitype/StillImage" /><dc:title></dc:title></cc:Work></rdf:RDF></metadata><defs
     id="defs3833"><linearGradient
       inkscape:collect="always"
       id="linearGradient5368"><stop
         style="stop-color:#00a500;stop-opacity:1;"
         offset="0"
         id="stop5370" /><stop
         style="stop-color:#00a500;stop-opacity:0;"
         offset="1"
         id="stop5372" /></linearGradient><linearGradient
       id="linearGradient5342"
       osb:paint="solid"><stop
         style="stop-color:#000000;stop-opacity:1;"
         offset="0"
         id="stop5344" /></linearGradient><linearGradient
       inkscape:collect="always"
       id="linearGradient3888"><stop
         style="stop-color:#00a500;stop-opacity:1;"
         offset="0"
         id="stop3890" /><stop
         style="stop-color:#00a500;stop-opacity:0;"
         offset="1"
         id="stop3892" /></linearGradient><linearGradient
       inkscape:collect="always"
       id="linearGradient3837"><stop
         style="stop-color:#00a000;stop-opacity:1;"
         offset="0"
         id="stop3839" /><stop
         style="stop-color:#00a000;stop-opacity:0;"
         offset="1"
         id="stop3841" /></linearGradient><radialGradient
       inkscape:collect="always"
       xlink:href="#linearGradient3837"
       id="radialGradient3845"
       cx="25.001225"
       cy="24.999374"
       fx="25.001225"
       fy="24.999374"
       r="14.744827"
       gradientTransform="matrix(1,0,0,1.0287252,0,-0.71811177)"
       gradientUnits="userSpaceOnUse" /><radialGradient
       inkscape:collect="always"
       xlink:href="#linearGradient3837"
       id="radialGradient3866"
       gradientUnits="userSpaceOnUse"
       gradientTransform="matrix(1,0,0,1.0287252,0,-0.71811177)"
       cx="25.001225"
       cy="24.999374"
       fx="25.001225"
       fy="24.999374"
       r="14.744827" /><radialGradient
       inkscape:collect="always"
       xlink:href="#linearGradient3837"
       id="radialGradient3868"
       gradientUnits="userSpaceOnUse"
       gradientTransform="matrix(1,0,0,1.0287252,0,-0.71811177)"
       cx="25.001225"
       cy="24.999374"
       fx="25.001225"
       fy="24.999374"
       r="14.744827" /><radialGradient
       inkscape:collect="always"
       xlink:href="#linearGradient3837"
       id="radialGradient3870"
       gradientUnits="userSpaceOnUse"
       gradientTransform="matrix(1,0,0,1.0287252,0,-0.71811177)"
       cx="25.001225"
       cy="24.999374"
       fx="25.001225"
       fy="24.999374"
       r="14.744827" /><radialGradient
       inkscape:collect="always"
       xlink:href="#linearGradient3837"
       id="radialGradient3872"
       gradientUnits="userSpaceOnUse"
       gradientTransform="matrix(1,0,0,1.0287252,0,-0.71811177)"
       cx="25.001225"
       cy="24.999374"
       fx="25.001225"
       fy="24.999374"
       r="14.744827" /><radialGradient
       inkscape:collect="always"
       xlink:href="#linearGradient3837"
       id="radialGradient3874"
       gradientUnits="userSpaceOnUse"
       gradientTransform="matrix(1,0,0,1.0287252,0,-0.71811177)"
       cx="25.001225"
       cy="24.999374"
       fx="25.001225"
       fy="24.999374"
       r="14.744827" /><radialGradient
       inkscape:collect="always"
       xlink:href="#linearGradient3888"
       id="radialGradient5366"
       cx="15.491511"
       cy="37.267204"
       fx="15.491511"
       fy="37.267204"
       r="4.5478516"
       gradientTransform="matrix(1,0,0,0.42559588,0,21.406436)"
       gradientUnits="userSpaceOnUse" /><radialGradient
       inkscape:collect="always"
       xlink:href="#linearGradient5368"
       id="radialGradient5376"
       cx="15.491511"
       cy="37.267204"
       fx="15.491511"
       fy="37.267204"
       r="4.5478516"
       gradientTransform="matrix(1,0,0,0.42559588,0,21.406436)"
       gradientUnits="userSpaceOnUse" /></defs><sodipodi:namedview
     pagecolor="#ffffff"
     bordercolor="#666666"
     borderopacity="1"
     objecttolerance="10"
     gridtolerance="10"
     guidetolerance="10"
     inkscape:pageopacity="0"
     inkscape:pageshadow="2"
     inkscape:window-width="1918"
     inkscape:window-height="1031"
     id="namedview3831"
     showgrid="false"
     inkscape:zoom="16.94"
     inkscape:cx="25"
     inkscape:cy="25.094472"
     inkscape:window-x="0"
     inkscape:window-y="1024"
     inkscape:window-maximized="1"
     inkscape:current-layer="Layer_1" /><g
     id="g3819"
     style="fill:#008000;stroke:url(#radialGradient3845);stroke-opacity:1"
     transform="matrix(1.5822394,0,0,1.5822394,-16.243225,-13.528917)"><path
       d="M 39.025,32.034 37.781,31.412 C 37.155,31.099 36.24,30.277 35.784,29.621 L 34.1,27.193 c -0.493,-0.711 -1.367,-1.467 -2.015,-1.467 h -0.729 c 0.084,-0.768 0.383,-1.563 0.753,-1.894 0.436,-0.39 0.176,-1.067 -0.571,-1.508 l -1.957,-1.146 0.753,-0.906 c 0.357,-0.436 1.277,-0.669 1.967,-0.497 l 1.031,0.253 c 0.93,0.225 2.211,0.16 2.915,-0.149 l 1.128,-0.504 c 0.2,-0.089 0.287,-0.322 0.2,-0.521 -0.09,-0.201 -0.329,-0.289 -0.522,-0.201 l -1.128,0.503 c -0.534,0.239 -1.658,0.287 -2.404,0.104 L 32.49,19.006 c -1.003,-0.244 -2.212,0.092 -2.766,0.763 l -0.832,1.006 -0.95,-0.557 c -0.698,-0.411 -1.573,-1.161 -2.042,-1.735 0.023,-0.02 0.059,-0.018 0.07,-0.047 l 0.641,-1.444 c 0.045,-0.101 0,-0.216 -0.101,-0.261 -0.103,-0.043 -0.217,0 -0.26,0.101 l -0.616,1.387 c -0.385,-0.364 -0.884,-0.364 -1.268,0 L 23.75,16.832 c -0.045,-0.101 -0.157,-0.144 -0.261,-0.101 -0.101,0.045 -0.146,0.16 -0.101,0.261 l 0.641,1.444 c 0.013,0.029 0.048,0.027 0.071,0.047 -0.47,0.574 -1.344,1.324 -2.043,1.735 l -0.949,0.557 -0.831,-1.006 C 19.722,19.098 18.512,18.76 17.509,19.006 l -1.03,0.254 c -0.748,0.184 -1.872,0.136 -2.405,-0.104 l -1.128,-0.503 c -0.193,-0.088 -0.433,0 -0.522,0.201 -0.088,0.198 0,0.432 0.201,0.521 l 1.128,0.504 c 0.701,0.311 1.983,0.377 2.915,0.149 l 1.031,-0.253 c 0.69,-0.172 1.608,0.062 1.968,0.497 l 0.752,0.906 -1.957,1.146 c -0.748,0.44 -1.007,1.118 -0.571,1.508 0.369,0.331 0.669,1.126 0.752,1.894 h -0.727 c -0.647,0 -1.521,0.756 -2.015,1.467 l -1.685,2.428 c -0.457,0.656 -1.372,1.478 -1.999,1.791 l -1.241,0.622 c -0.197,0.097 -0.275,0.335 -0.178,0.528 0.068,0.139 0.207,0.22 0.353,0.22 0.061,0 0.12,-0.015 0.176,-0.042 l 1.244,-0.621 c 0.75,-0.376 1.757,-1.274 2.294,-2.048 l 1.685,-2.428 c 0.471,-0.677 1.135,-1.128 1.366,-1.128 h 0.764 v 4.234 h -0.764 c -0.715,0 -1.349,0.907 -1.608,1.804 l -1.028,3.566 c -0.212,0.732 -0.889,1.6 -1.481,1.896 l -1.242,0.623 c -0.195,0.096 -0.275,0.334 -0.178,0.528 0.069,0.139 0.209,0.219 0.354,0.219 0.06,0 0.119,-0.014 0.175,-0.042 l 1.244,-0.621 c 0.786,-0.394 1.615,-1.439 1.887,-2.385 l 1.029,-3.564 c 0.231,-0.801 0.705,-1.233 0.849,-1.233 h 0.764 v 1.502 c 0,0.868 0.529,2.055 1.176,2.635 l 3.968,3.555 c 0.647,0.581 1.706,0.581 2.352,0 l 3.97,-3.555 c 0.646,-0.58 1.175,-1.767 1.175,-2.635 V 31.54 h 0.766 c 0.144,0 0.617,0.433 0.85,1.233 l 1.028,3.564 c 0.271,0.943 1.101,1.991 1.885,2.385 l 1.246,0.621 c 0.056,0.028 0.115,0.042 0.175,0.042 0.146,0 0.285,-0.08 0.354,-0.219 0.097,-0.194 0.019,-0.433 -0.178,-0.528 l -1.243,-0.623 c -0.592,-0.296 -1.269,-1.165 -1.48,-1.896 l -1.029,-3.566 c -0.259,-0.896 -0.893,-1.804 -1.607,-1.804 h -0.766 v -4.234 h 0.766 c 0.231,0 0.896,0.451 1.367,1.128 l 1.684,2.428 c 0.537,0.773 1.543,1.672 2.293,2.048 l 1.244,0.621 c 0.056,0.027 0.117,0.042 0.177,0.042 0.146,0 0.283,-0.081 0.353,-0.22 0.093,-0.193 0.015,-0.431 -0.182,-0.528 z"
       id="path3821"
       style="fill:#008000;stroke:url(#radialGradient3866);stroke-opacity:1"
       inkscape:connector-curvature="0" /><path
       d="m 26.961,15.907 c 0.076,0 0.147,-0.044 0.181,-0.117 l 1.063,-2.403 c 0.045,-0.101 -0.002,-0.216 -0.1,-0.261 -0.104,-0.048 -0.217,0 -0.262,0.101 l -1.063,2.402 c -0.045,0.101 10e-4,0.217 0.101,0.262 0.025,0.011 0.054,0.016 0.08,0.016 z"
       id="path3823"
       style="fill:#008000;stroke:url(#radialGradient3868);stroke-opacity:1"
       inkscape:connector-curvature="0" /><path
       d="m 28.557,12.304 c 0.075,0 0.147,-0.043 0.181,-0.117 l 0.544,-1.23 c 0.135,-0.041 0.244,-0.146 0.244,-0.294 0,-0.181 -0.148,-0.329 -0.331,-0.329 -0.181,0 -0.328,0.148 -0.328,0.329 0,0.051 0.034,0.088 0.054,0.131 l -0.544,1.232 c -0.045,0.101 0.001,0.217 0.101,0.262 0.024,0.012 0.051,0.016 0.079,0.016 z"
       id="path3825"
       style="fill:#008000;stroke:url(#radialGradient3870);stroke-opacity:1"
       inkscape:connector-curvature="0" /><path
       d="m 22.858,15.791 c 0.032,0.073 0.104,0.117 0.181,0.117 0.025,0 0.054,-0.004 0.08,-0.017 0.099,-0.045 0.145,-0.161 0.101,-0.262 l -1.064,-2.402 c -0.043,-0.1 -0.16,-0.149 -0.26,-0.1 -0.1,0.044 -0.146,0.161 -0.101,0.26 l 1.063,2.404 z"
       id="path3827"
       style="fill:#008000;stroke:url(#radialGradient3872);stroke-opacity:1"
       inkscape:connector-curvature="0" /><path
       d="m 20.718,10.955 0.545,1.231 c 0.032,0.074 0.104,0.117 0.181,0.117 0.025,0 0.054,-0.004 0.08,-0.017 0.099,-0.045 0.145,-0.161 0.101,-0.262 l -0.546,-1.232 c 0.021,-0.044 0.056,-0.081 0.056,-0.133 0,-0.181 -0.149,-0.328 -0.331,-0.328 -0.181,0 -0.329,0.147 -0.329,0.328 -0.001,0.15 0.109,0.255 0.243,0.296 z"
       id="path3829"
       style="fill:#008000;stroke:url(#radialGradient3874);stroke-opacity:1"
       inkscape:connector-curvature="0" /></g><text
     xml:space="preserve"
     style="font-size:6px;font-style:normal;font-variant:normal;font-weight:normal;font-stretch:normal;text-align:start;line-height:125%;letter-spacing:0px;word-spacing:0px;writing-mode:lr-tb;text-anchor:start;fill:#00ac00;fill-opacity:1;stroke:none;font-family:Sans;-inkscape-font-specification:Sans"
     x="15.857638"
     y="32.543053"
     id="text3876"
     sodipodi:linespacing="125%"><tspan
       sodipodi:role="line"
       id="tspan3878"
       x="15.857638"
       y="32.543053"
       style="fill:#00ac00;fill-opacity:1;stroke:none">iibpd</tspan></text>
</svg>